<svg width="265" height="250" viewBox="0 0 265 250" fill="none" xmlns="http://www.w3.org/2000/svg">
<g clip-path="url(#clip0)">
<path d="M192.391 141.865V210.926L203.922 229.752L204.799 231.184H250.294L251.214 141.865H192.391Z" fill="#E6E6E6"/>
<path opacity="0.1" d="M192.391 141.865V210.926L203.922 229.752L204.629 141.865H192.391Z" fill="black"/>
<path d="M82.5591 140.023V209.084L71.0289 227.91L70.1514 229.342H24.6561L23.7368 140.023H82.5591Z" fill="#E6E6E6"/>
<path opacity="0.1" d="M82.5591 140.023V209.084L71.0289 227.91L70.3213 140.023H82.5591Z" fill="black"/>
<path d="M265 138.642V142.786H17.7627V136.8L40.7401 124.83H244.78L265 138.642Z" fill="#E6E6E6"/>
<path opacity="0.1" d="M265 138.642V142.786H17.7627V136.8L265 138.642Z" fill="black"/>
<path d="M53.1481 159.36H42.1187L37.5232 156.137H58.203L53.1481 159.36Z" fill="#3F3D56"/>
<path d="M53.1481 172.712H42.1187L37.5232 169.489H58.203L53.1481 172.712Z" fill="#3F3D56"/>
<path d="M53.1481 191.589H42.1187L37.5232 188.366H58.203L53.1481 191.589Z" fill="#3F3D56"/>
<path d="M53.1481 210.465H42.1187L37.5232 207.243H58.203L53.1481 210.465Z" fill="#3F3D56"/>
<path d="M221.802 161.202H232.832L237.427 157.979H216.747L221.802 161.202Z" fill="#3F3D56"/>
<path d="M221.802 174.554H232.832L237.427 171.331H216.747L221.802 174.554Z" fill="#3F3D56"/>
<path d="M221.802 193.43H232.832L237.427 190.208H216.747L221.802 193.43Z" fill="#3F3D56"/>
<path d="M221.802 212.307H232.832L237.427 209.084H216.747L221.802 212.307Z" fill="#3F3D56"/>
<path d="M229.313 44.9677H136.463C136.002 44.9676 135.545 45.0585 135.119 45.2353C134.693 45.4121 134.306 45.6712 133.98 45.9979C133.653 46.3246 133.395 46.7125 133.218 47.1393C133.042 47.5662 132.951 48.0237 132.951 48.4857V111.149C132.951 111.611 133.042 112.068 133.218 112.495C133.395 112.922 133.653 113.31 133.98 113.637C134.306 113.963 134.693 114.222 135.119 114.399C135.545 114.576 136.002 114.667 136.463 114.667H171.709L170.389 123.114C170.389 123.114 162.842 127.13 168.149 127.248C173.455 127.366 198.453 127.248 198.453 127.248C198.453 127.248 203.287 127.248 195.623 122.995L194.38 114.667H229.313C229.774 114.667 230.231 114.576 230.657 114.399C231.083 114.222 231.47 113.963 231.796 113.637C232.122 113.31 232.381 112.922 232.557 112.495C232.734 112.068 232.825 111.611 232.825 111.149V48.4857C232.825 48.0237 232.734 47.5662 232.557 47.1393C232.381 46.7125 232.122 46.3246 231.796 45.9979C231.47 45.6712 231.083 45.4121 230.657 45.2353C230.231 45.0585 229.774 44.9676 229.313 44.9677V44.9677Z" fill="#3F3D56"/>
<path d="M229.464 48.6889H136.312V100.904H229.464V48.6889Z" fill="#F2F2F2"/>
<path d="M182.888 47.6257C183.214 47.6257 183.477 47.3612 183.477 47.035C183.477 46.7088 183.214 46.4443 182.888 46.4443C182.562 46.4443 182.298 46.7088 182.298 47.035C182.298 47.3612 182.562 47.6257 182.888 47.6257Z" fill="#F2F2F2"/>
<path d="M182.888 112.127C184.125 112.127 185.128 111.122 185.128 109.882C185.128 108.643 184.125 107.638 182.888 107.638C181.651 107.638 180.647 108.643 180.647 109.882C180.647 111.122 181.651 112.127 182.888 112.127Z" fill="#F2F2F2"/>
<path d="M179.397 133.627V134.809H115.959V133.864L116.046 133.627L117.61 129.375H178.1L179.397 133.627Z" fill="#3F3D56"/>
<path d="M203.81 132.471C203.694 132.966 203.258 133.488 202.272 133.982C198.735 135.754 191.542 133.509 191.542 133.509C191.542 133.509 186 132.564 186 130.083C186.155 129.977 186.318 129.88 186.486 129.794C187.973 129.006 192.904 127.061 201.648 129.876C202.292 130.079 202.867 130.457 203.31 130.968C203.506 131.161 203.653 131.398 203.74 131.659C203.827 131.92 203.851 132.199 203.81 132.471Z" fill="#3F3D56"/>
<path opacity="0.1" d="M203.81 132.471C199.48 134.133 195.62 134.257 191.66 131.501C190.162 130.392 188.348 129.793 186.486 129.794C187.973 129.006 192.904 127.061 201.648 129.876C202.292 130.079 202.867 130.457 203.31 130.968C203.506 131.161 203.653 131.398 203.74 131.659C203.827 131.92 203.851 132.199 203.81 132.471Z" fill="black"/>
<path d="M198.381 131.501C199.227 131.501 199.914 131.29 199.914 131.029C199.914 130.768 199.227 130.556 198.381 130.556C197.534 130.556 196.848 130.768 196.848 131.029C196.848 131.29 197.534 131.501 198.381 131.501Z" fill="#F2F2F2"/>
<path opacity="0.1" d="M179.397 133.627V134.809H115.959V133.864L116.046 133.627H179.397Z" fill="black"/>
<path d="M35.2723 3.00345e-05C34.6285 -0.0529294 33.9838 0.0913571 33.4236 0.41377C32.8737 0.791113 32.527 1.45218 32.1732 2.06734C30.8203 4.44743 28.9889 6.5201 26.7947 8.15404C25.1966 9.32699 23.1648 10.7895 23.4383 12.9521C23.5825 13.6663 23.8458 14.351 24.2172 14.9775C25.6915 17.9591 29.7147 20.2633 29.3189 23.6656C30.7837 21.2089 28.8245 19.9941 30.2892 17.5374C30.9868 16.3674 32.1986 15.0468 33.2517 15.7815C33.6044 16.0275 33.8359 16.4687 34.2031 16.6846C35.0792 17.1997 36.0112 16.215 36.7867 15.5175C39.4609 13.1124 43.2639 13.7425 46.5917 14.4919C48.1627 14.8456 49.8883 15.3098 50.8171 16.8141C52.0381 18.792 49.6569 20.9281 49.0553 23.1643C49.0062 23.3549 49.0039 23.5545 49.0485 23.7461C49.0932 23.9378 49.1836 24.1157 49.3118 24.2647C49.4401 24.4138 49.6025 24.5295 49.7851 24.6019C49.9678 24.6744 50.1652 24.7014 50.3606 24.6808C51.3591 24.5821 52.5419 24.5012 52.601 24.0622C53.8573 24.107 55.3966 23.9645 55.9349 22.6539C56.0994 22.1354 56.1864 21.5953 56.193 21.0512C56.3905 18.8497 57.3231 16.8413 57.941 14.746C58.5588 12.6507 58.8274 10.1951 57.7848 8.33744C57.4127 7.71935 56.9525 7.159 56.4188 6.67413C50.502 0.93755 42.7228 -0.00848519 35.2723 3.00345e-05Z" fill="#2F2E41"/>
<path d="M30.6059 27.963C30.6059 27.963 31.8926 38.7063 27.1744 39.5657C22.4562 40.4252 31.4637 55.0361 31.4637 55.0361L52.9103 57.6145L47.7631 40.4252C47.7631 40.4252 44.3317 39.136 46.4763 30.5414C48.621 21.9467 30.6059 27.963 30.6059 27.963Z" fill="#FFB8B8"/>
<path d="M17.5234 212.533L19.2393 236.168H28.2466L25.6733 212.533H17.5234Z" fill="#FFB8B8"/>
<path d="M83.5789 167.841L84.8655 187.608L94.7313 183.311L90.8706 166.981L83.5789 167.841Z" fill="#FFB8B8"/>
<path d="M11.0894 122.289C11.0894 122.289 11.5183 147.214 14.0919 155.378C16.6655 163.543 16.2365 163.973 15.8076 165.262C15.3787 166.552 14.9498 165.692 14.9498 167.841C14.9498 169.989 14.0919 203.938 14.9498 206.946C15.8076 209.954 12.3762 215.111 14.9498 215.541C17.5233 215.971 29.5334 215.541 29.9624 212.963C30.3913 210.384 26.5309 209.525 28.2466 207.806C29.9624 206.087 32.536 170.849 32.536 170.849L38.541 146.354L49.6932 133.462H73.2845L80.5763 161.824C80.5763 161.824 77.5738 169.989 79.7184 169.989C81.8631 169.989 94.7311 172.568 94.7311 163.114C94.7311 153.66 90.4417 125.727 89.5839 124.868C88.726 124.008 90.0128 121 88.726 119.711C87.4392 118.422 72.4266 109.397 66.8505 107.678C61.2744 105.959 53.452 103.913 53.452 103.913L11.0894 122.289Z" fill="#2F2E41"/>
<path d="M94.731 179.873C94.731 179.873 88.2971 177.725 85.2945 184.171C82.292 190.616 83.5788 192.335 83.5788 192.335C83.5788 192.335 93.4442 195.773 95.16 194.054C95.9064 193.306 98.2768 193.047 100.717 192.992C104.433 192.908 105.421 187.641 101.912 186.415C101.807 186.378 101.701 186.346 101.594 186.319C98.1625 185.46 94.731 179.873 94.731 179.873Z" fill="#2F2E41"/>
<path d="M40.2569 35.0535C47.3636 35.0535 53.1248 29.2816 53.1248 22.1616C53.1248 15.0415 47.3636 9.26959 40.2569 9.26959C33.1501 9.26959 27.3889 15.0415 27.3889 22.1616C27.3889 29.2816 33.1501 35.0535 40.2569 35.0535Z" fill="#FFB8B8"/>
<path d="M23.5285 44.9374C23.5285 44.9374 44.5461 49.2347 49.6933 42.359C54.8405 35.4833 56.9852 61.6969 56.9852 61.6969L59.5587 89.1998L55.6984 104.24C55.6984 104.24 35.5386 120.57 29.1046 121.859C22.6706 123.149 12.8052 124.008 12.8052 124.008C12.8052 124.008 15.8077 76.3078 15.8077 75.4483C15.8077 74.5889 23.5285 44.9374 23.5285 44.9374Z" fill="#5A88FF"/>
<path d="M29.9205 36.8779C29.9205 36.8779 25.2443 34.194 23.9575 36.7724C22.6707 39.3508 10.6606 45.7968 9.37377 45.7968C8.08697 45.7968 11.9474 81.4646 10.2316 85.7619C8.51591 90.0592 0.366203 121.43 5.08445 124.008C9.80271 126.586 6.37125 121.43 11.0895 127.876C15.8078 134.322 38.9701 134.322 40.2569 131.743C41.5437 129.165 29.9625 109.827 32.1072 91.7781C34.2518 73.7294 37.6833 48.8049 34.6808 45.3671C31.6782 41.9292 29.9205 36.8779 29.9205 36.8779Z" fill="#2F2E41"/>
<path d="M45.4038 39.7806L46.0013 37.7206C46.0013 37.7206 63.8479 43.6482 64.7057 47.5158C65.5636 51.3833 65.1347 78.4565 62.1322 80.6051C59.1296 82.7538 54.8403 86.1916 57.8428 91.3484C60.8454 96.5052 64.2768 102.092 66.8504 102.521C69.424 102.951 74.1422 105.959 72.8555 108.967C71.5687 111.976 56.1271 106.389 56.1271 106.389C56.1271 106.389 45.8327 98.6538 46.2617 86.6213C46.6906 74.5888 45.4038 39.7806 45.4038 39.7806Z" fill="#2F2E41"/>
<path d="M60.4166 90.4889L50.1222 109.827C50.1222 109.827 35.1096 125.297 43.6883 127.016C52.2669 128.735 56.9851 112.835 56.9851 112.835L68.1374 96.9349L60.4166 90.4889Z" fill="#FFB8B8"/>
<path d="M35.8993 3.37317C35.3806 3.33467 34.8611 3.43562 34.3944 3.6656C33.9724 3.97436 33.6247 4.37366 33.3765 4.83433C32.2324 6.55849 30.7411 8.02387 28.9982 9.13637C27.6973 9.96541 26.0433 10.9991 26.2659 12.5276C26.3867 13.0401 26.6018 13.5255 26.9 13.9591C28.1043 16.0878 28.5837 18.5516 28.2657 20.9776L31.8429 15.7685C32.4107 14.9416 33.3972 14.0081 34.2545 14.5274C34.5415 14.7013 34.73 15.0132 35.0289 15.1657C35.7421 15.5298 36.5008 14.8338 37.1321 14.3408C39.309 12.6409 42.4048 13.0863 45.1138 13.6159C46.3927 13.866 47.7974 14.194 48.5534 15.2573C49.8098 17.0242 48.4979 19.5773 49.2311 21.6185C49.4364 21.4745 49.6107 21.2907 49.7437 21.078C49.8768 20.8653 49.9658 20.628 50.0056 20.3802C51.0283 20.4118 52.2814 20.3111 52.7195 19.3848C52.8528 19.0217 52.9238 18.6387 52.9296 18.252C53.0904 16.696 53.8496 15.2765 54.3526 13.7955C54.8555 12.3146 55.0742 10.579 54.2254 9.26599C53.9149 8.82111 53.5402 8.42491 53.1135 8.09037C48.2969 4.0358 41.9643 3.36716 35.8993 3.37317Z" fill="#2F2E41"/>
<path d="M60.4166 45.7968L64.413 46.8596C64.413 46.8596 73.7135 70.7213 71.5688 87.0511C69.4241 103.381 68.1373 99.9431 68.1373 99.9431C68.1373 99.9431 64.7059 92.2079 56.9851 93.9268L60.4166 45.7968Z" fill="#2F2E41"/>
<path d="M18.1177 233.044C17.0834 234.453 17.2908 236.466 16.3745 237.954C15.5803 239.244 14.0835 239.92 13.0901 241.063C12.7732 241.443 12.4906 241.85 12.2457 242.28C11.3242 243.826 10.5752 245.808 11.4828 247.363C12.2129 248.614 13.7475 249.103 15.1549 249.436C16.9338 249.857 18.7821 250.194 20.5815 249.872C22.3809 249.55 24.1396 248.446 24.7811 246.732C24.9072 246.3 25.0571 245.877 25.2302 245.462C26.2055 243.538 29.2647 243.518 30.2628 241.606C30.9614 240.268 30.3192 238.651 29.6774 237.284L27.717 233.112C27.0665 231.727 24.4292 232.523 23.0543 232.192C21.2612 231.759 19.4077 231.282 18.1177 233.044Z" fill="#2F2E41"/>
<path d="M3.79761 99.0836L21.8127 127.016C21.8127 127.016 32.965 141.197 36.3964 134.751C39.8279 128.305 24.3863 117.562 24.3863 117.562L12.8052 96.0755L3.79761 99.0836Z" fill="#FFB8B8"/>
<path d="M12.8051 46.6563L9.37369 45.7968C9.37369 45.7968 2.51079 47.9455 0.79506 56.9698C-0.920665 65.9942 0.366126 102.092 2.51078 102.521C4.65544 102.951 13.1032 96.2361 14.4555 97.6599C15.8077 99.0836 11.5183 91.7781 12.8051 87.9105C14.0919 84.043 12.8051 46.6563 12.8051 46.6563Z" fill="#2F2E41"/>
<path d="M174.071 65.8381H162.985V68.512H174.071V65.8381Z" fill="#5A88FF"/>
<path d="M212.462 65.8381H208.561V68.512H212.462V65.8381Z" fill="#5A88FF"/>
<path d="M220.263 65.8381H216.363V68.512H220.263V65.8381Z" fill="#5A88FF"/>
<path d="M204.455 65.8381H177.972V68.512H204.455V65.8381Z" fill="#5A88FF"/>
<path d="M160.111 83.1155H149.024V85.7894H160.111V83.1155Z" fill="#5A88FF"/>
<path d="M198.502 83.1155H194.601V85.7894H198.502V83.1155Z" fill="#5A88FF"/>
<path d="M206.303 83.1155H202.403V85.7894H206.303V83.1155Z" fill="#5A88FF"/>
<path d="M190.495 83.1155H164.011V85.7894H190.495V83.1155Z" fill="#5A88FF"/>
<path d="M205.893 71.8029H194.806V74.4768H205.893V71.8029Z" fill="#5A88FF"/>
<path d="M220.879 71.8029H209.793V74.4768H220.879V71.8029Z" fill="#5A88FF"/>
<path d="M152.925 71.8029H149.024V74.4768H152.925V71.8029Z" fill="#5A88FF"/>
<path d="M160.727 71.8029H156.826V74.4768H160.727V71.8029Z" fill="#5A88FF"/>
<path d="M191.111 71.8029H164.627V74.4768H191.111V71.8029Z" fill="#5A88FF"/>
<path d="M182.899 77.5621H171.813V80.2359H182.899V77.5621Z" fill="#5A88FF"/>
<path d="M167.912 77.5621H156.826V80.2359H167.912V77.5621Z" fill="#5A88FF"/>
<path d="M152.925 77.5621H149.024V80.2359H152.925V77.5621Z" fill="#5A88FF"/>
<path d="M220.879 77.5621H216.979V80.2359H220.879V77.5621Z" fill="#5A88FF"/>
<path d="M213.078 77.5621H186.594V80.2359H213.078V77.5621Z" fill="#5A88FF"/>
</g>
<defs>
<clipPath id="clip0">
<rect width="265" height="250" fill="white"/>
</clipPath>
</defs>
</svg>
